<?xml version="1.0" encoding="UTF-8"?>
<svg xmlns="http://www.w3.org/2000/svg" viewBox="0 0 800 400" fill="none">
  <rect width="800" height="400" fill="#0f172a"/>
  <rect x="40" y="30" width="720" height="340" rx="12" fill="#1e293b" stroke="#334155" stroke-width="1"/>
  <rect x="40" y="30" width="720" height="40" rx="12" fill="#1e293b"/>
  <rect x="40" y="58" width="720" height="2" fill="#334155"/>
  <circle cx="65" cy="50" r="6" fill="#ef4444"/>
  <circle cx="85" cy="50" r="6" fill="#eab308"/>
  <circle cx="105" cy="50" r="6" fill="#22c55e"/>
  <text x="400" y="54" text-anchor="middle" fill="#94a3b8" font-family="monospace" font-size="13">Data Analytics Dashboard</text>
  <rect x="60" y="80" width="150" height="24" rx="4" fill="#6366f1"/>
  <text x="135" y="96" text-anchor="middle" fill="white" font-family="sans-serif" font-size="11" font-weight="bold">Overview</text>
  <rect x="220" y="80" width="150" height="24" rx="4" fill="#1e293b" stroke="#475569" stroke-width="1"/>
  <text x="295" y="96" text-anchor="middle" fill="#94a3b8" font-family="sans-serif" font-size="11">Visualization</text>
  <rect x="380" y="80" width="150" height="24" rx="4" fill="#1e293b" stroke="#475569" stroke-width="1"/>
  <text x="455" y="96" text-anchor="middle" fill="#94a3b8" font-family="sans-serif" font-size="11">Statistics</text>
  <rect x="540" y="80" width="150" height="24" rx="4" fill="#1e293b" stroke="#475569" stroke-width="1"/>
  <text x="615" y="96" text-anchor="middle" fill="#94a3b8" font-family="sans-serif" font-size="11">Machine Learning</text>
  <rect x="60" y="120" width="160" height="80" rx="8" fill="#1a1f36" stroke="#334155" stroke-width="1"/>
  <text x="140" y="145" text-anchor="middle" fill="#94a3b8" font-family="sans-serif" font-size="10">Total Records</text>
  <text x="140" y="175" text-anchor="middle" fill="#6366f1" font-family="sans-serif" font-size="24" font-weight="bold">12,847</text>
  <rect x="235" y="120" width="160" height="80" rx="8" fill="#1a1f36" stroke="#334155" stroke-width="1"/>
  <text x="315" y="145" text-anchor="middle" fill="#94a3b8" font-family="sans-serif" font-size="10">Features</text>
  <text x="315" y="175" text-anchor="middle" fill="#22c55e" font-family="sans-serif" font-size="24" font-weight="bold">24</text>
  <rect x="410" y="120" width="160" height="80" rx="8" fill="#1a1f36" stroke="#334155" stroke-width="1"/>
  <text x="490" y="145" text-anchor="middle" fill="#94a3b8" font-family="sans-serif" font-size="10">R2 Score</text>
  <text x="490" y="175" text-anchor="middle" fill="#eab308" font-family="sans-serif" font-size="24" font-weight="bold">0.94</text>
  <rect x="585" y="120" width="160" height="80" rx="8" fill="#1a1f36" stroke="#334155" stroke-width="1"/>
  <text x="665" y="145" text-anchor="middle" fill="#94a3b8" font-family="sans-serif" font-size="10">Clusters</text>
  <text x="665" y="175" text-anchor="middle" fill="#ef4444" font-family="sans-serif" font-size="24" font-weight="bold">5</text>
  <rect x="60" y="215" width="340" height="140" rx="8" fill="#1a1f36" stroke="#334155" stroke-width="1"/>
  <text x="80" y="240" fill="#e2e8f0" font-family="sans-serif" font-size="11" font-weight="bold">Revenue Trend</text>
  <polyline points="80,330 120,300 160,310 200,280 240,260 280,275 320,240 360,250" stroke="#6366f1" stroke-width="2.5" fill="none" stroke-linecap="round" stroke-linejoin="round"/>
  <polygon points="80,330 120,300 160,310 200,280 240,260 280,275 320,240 360,250 360,340 80,340" fill="#6366f1" opacity="0.15"/>
  <line x1="80" y1="335" x2="380" y2="335" stroke="#334155" stroke-width="1"/>
  <rect x="415" y="215" width="330" height="140" rx="8" fill="#1a1f36" stroke="#334155" stroke-width="1"/>
  <text x="435" y="240" fill="#e2e8f0" font-family="sans-serif" font-size="11" font-weight="bold">K-Means Clustering</text>
  <circle cx="480" cy="290" r="8" fill="#6366f1" opacity="0.7"/>
  <circle cx="500" cy="310" r="6" fill="#6366f1" opacity="0.7"/>
  <circle cx="470" cy="305" r="7" fill="#6366f1" opacity="0.7"/>
  <circle cx="510" cy="280" r="5" fill="#6366f1" opacity="0.7"/>
  <circle cx="560" cy="270" r="7" fill="#22c55e" opacity="0.7"/>
  <circle cx="580" cy="290" r="8" fill="#22c55e" opacity="0.7"/>
  <circle cx="570" cy="310" r="6" fill="#22c55e" opacity="0.7"/>
  <circle cx="550" cy="295" r="5" fill="#22c55e" opacity="0.7"/>
  <circle cx="640" cy="280" r="6" fill="#eab308" opacity="0.7"/>
  <circle cx="660" cy="300" r="7" fill="#eab308" opacity="0.7"/>
  <circle cx="650" cy="320" r="5" fill="#eab308" opacity="0.7"/>
  <circle cx="680" cy="310" r="8" fill="#ef4444" opacity="0.7"/>
  <circle cx="700" cy="290" r="6" fill="#ef4444" opacity="0.7"/>
  <circle cx="690" cy="270" r="5" fill="#ef4444" opacity="0.7"/>
  <circle cx="720" cy="330" r="7" fill="#a855f7" opacity="0.7"/>
  <circle cx="710" cy="340" r="5" fill="#a855f7" opacity="0.7"/>
</svg>
