<?xml version="1.0" encoding="UTF-8"?>
<svg xmlns="http://www.w3.org/2000/svg" viewBox="0 0 800 400" fill="none">
  <rect width="800" height="400" fill="#0f172a"/>
  <rect x="40" y="25" width="720" height="350" rx="12" fill="#1e293b" stroke="#334155" stroke-width="1"/>
  <text x="400" y="55" text-anchor="middle" fill="#e2e8f0" font-family="sans-serif" font-size="16" font-weight="bold">Procedural Beat Generator</text>
  <text x="400" y="73" text-anchor="middle" fill="#64748b" font-family="sans-serif" font-size="10">Synthesize drums from math, arrange patterns into WAV</text>
  <text x="70" y="105" fill="#94a3b8" font-family="monospace" font-size="9">KICK</text>
  <text x="70" y="140" fill="#94a3b8" font-family="monospace" font-size="9">SNARE</text>
  <text x="70" y="175" fill="#94a3b8" font-family="monospace" font-size="9">HI-HAT</text>
  <text x="70" y="210" fill="#94a3b8" font-family="monospace" font-size="9">CLAP</text>
  <rect x="120" y="92" width="28" height="18" rx="3" fill="#6366f1"/><rect x="152" y="92" width="28" height="18" rx="3" fill="#1a1f36" stroke="#334155" stroke-width="0.5"/><rect x="184" y="92" width="28" height="18" rx="3" fill="#1a1f36" stroke="#334155" stroke-width="0.5"/><rect x="216" y="92" width="28" height="18" rx="3" fill="#1a1f36" stroke="#334155" stroke-width="0.5"/><rect x="248" y="92" width="28" height="18" rx="3" fill="#6366f1"/><rect x="280" y="92" width="28" height="18" rx="3" fill="#1a1f36" stroke="#334155" stroke-width="0.5"/><rect x="312" y="92" width="28" height="18" rx="3" fill="#1a1f36" stroke="#334155" stroke-width="0.5"/><rect x="344" y="92" width="28" height="18" rx="3" fill="#1a1f36" stroke="#334155" stroke-width="0.5"/><rect x="376" y="92" width="28" height="18" rx="3" fill="#6366f1"/><rect x="408" y="92" width="28" height="18" rx="3" fill="#1a1f36" stroke="#334155" stroke-width="0.5"/><rect x="440" y="92" width="28" height="18" rx="3" fill="#1a1f36" stroke="#334155" stroke-width="0.5"/><rect x="472" y="92" width="28" height="18" rx="3" fill="#1a1f36" stroke="#334155" stroke-width="0.5"/><rect x="504" y="92" width="28" height="18" rx="3" fill="#6366f1"/><rect x="536" y="92" width="28" height="18" rx="3" fill="#1a1f36" stroke="#334155" stroke-width="0.5"/><rect x="568" y="92" width="28" height="18" rx="3" fill="#1a1f36" stroke="#334155" stroke-width="0.5"/><rect x="600" y="92" width="28" height="18" rx="3" fill="#1a1f36" stroke="#334155" stroke-width="0.5"/>
  <rect x="120" y="127" width="28" height="18" rx="3" fill="#1a1f36" stroke="#334155" stroke-width="0.5"/><rect x="152" y="127" width="28" height="18" rx="3" fill="#1a1f36" stroke="#334155" stroke-width="0.5"/><rect x="184" y="127" width="28" height="18" rx="3" fill="#1a1f36" stroke="#334155" stroke-width="0.5"/><rect x="216" y="127" width="28" height="18" rx="3" fill="#1a1f36" stroke="#334155" stroke-width="0.5"/><rect x="248" y="127" width="28" height="18" rx="3" fill="#ef4444"/><rect x="280" y="127" width="28" height="18" rx="3" fill="#1a1f36" stroke="#334155" stroke-width="0.5"/><rect x="312" y="127" width="28" height="18" rx="3" fill="#1a1f36" stroke="#334155" stroke-width="0.5"/><rect x="344" y="127" width="28" height="18" rx="3" fill="#1a1f36" stroke="#334155" stroke-width="0.5"/><rect x="376" y="127" width="28" height="18" rx="3" fill="#1a1f36" stroke="#334155" stroke-width="0.5"/><rect x="408" y="127" width="28" height="18" rx="3" fill="#1a1f36" stroke="#334155" stroke-width="0.5"/><rect x="440" y="127" width="28" height="18" rx="3" fill="#1a1f36" stroke="#334155" stroke-width="0.5"/><rect x="472" y="127" width="28" height="18" rx="3" fill="#1a1f36" stroke="#334155" stroke-width="0.5"/><rect x="504" y="127" width="28" height="18" rx="3" fill="#ef4444"/><rect x="536" y="127" width="28" height="18" rx="3" fill="#1a1f36" stroke="#334155" stroke-width="0.5"/><rect x="568" y="127" width="28" height="18" rx="3" fill="#1a1f36" stroke="#334155" stroke-width="0.5"/><rect x="600" y="127" width="28" height="18" rx="3" fill="#1a1f36" stroke="#334155" stroke-width="0.5"/>
  <rect x="120" y="162" width="28" height="18" rx="3" fill="#22c55e"/><rect x="152" y="162" width="28" height="18" rx="3" fill="#1a1f36" stroke="#334155" stroke-width="0.5"/><rect x="184" y="162" width="28" height="18" rx="3" fill="#22c55e"/><rect x="216" y="162" width="28" height="18" rx="3" fill="#1a1f36" stroke="#334155" stroke-width="0.5"/><rect x="248" y="162" width="28" height="18" rx="3" fill="#22c55e"/><rect x="280" y="162" width="28" height="18" rx="3" fill="#1a1f36" stroke="#334155" stroke-width="0.5"/><rect x="312" y="162" width="28" height="18" rx="3" fill="#22c55e"/><rect x="344" y="162" width="28" height="18" rx="3" fill="#1a1f36" stroke="#334155" stroke-width="0.5"/><rect x="376" y="162" width="28" height="18" rx="3" fill="#22c55e"/><rect x="408" y="162" width="28" height="18" rx="3" fill="#1a1f36" stroke="#334155" stroke-width="0.5"/><rect x="440" y="162" width="28" height="18" rx="3" fill="#22c55e"/><rect x="472" y="162" width="28" height="18" rx="3" fill="#1a1f36" stroke="#334155" stroke-width="0.5"/><rect x="504" y="162" width="28" height="18" rx="3" fill="#22c55e"/><rect x="536" y="162" width="28" height="18" rx="3" fill="#1a1f36" stroke="#334155" stroke-width="0.5"/><rect x="568" y="162" width="28" height="18" rx="3" fill="#22c55e"/><rect x="600" y="162" width="28" height="18" rx="3" fill="#1a1f36" stroke="#334155" stroke-width="0.5"/>
  <rect x="120" y="197" width="28" height="18" rx="3" fill="#1a1f36" stroke="#334155" stroke-width="0.5"/><rect x="152" y="197" width="28" height="18" rx="3" fill="#1a1f36" stroke="#334155" stroke-width="0.5"/><rect x="184" y="197" width="28" height="18" rx="3" fill="#1a1f36" stroke="#334155" stroke-width="0.5"/><rect x="216" y="197" width="28" height="18" rx="3" fill="#1a1f36" stroke="#334155" stroke-width="0.5"/><rect x="248" y="197" width="28" height="18" rx="3" fill="#eab308"/><rect x="280" y="197" width="28" height="18" rx="3" fill="#1a1f36" stroke="#334155" stroke-width="0.5"/><rect x="312" y="197" width="28" height="18" rx="3" fill="#1a1f36" stroke="#334155" stroke-width="0.5"/><rect x="344" y="197" width="28" height="18" rx="3" fill="#1a1f36" stroke="#334155" stroke-width="0.5"/><rect x="376" y="197" width="28" height="18" rx="3" fill="#1a1f36" stroke="#334155" stroke-width="0.5"/><rect x="408" y="197" width="28" height="18" rx="3" fill="#1a1f36" stroke="#334155" stroke-width="0.5"/><rect x="440" y="197" width="28" height="18" rx="3" fill="#1a1f36" stroke="#334155" stroke-width="0.5"/><rect x="472" y="197" width="28" height="18" rx="3" fill="#1a1f36" stroke="#334155" stroke-width="0.5"/><rect x="504" y="197" width="28" height="18" rx="3" fill="#eab308"/><rect x="536" y="197" width="28" height="18" rx="3" fill="#1a1f36" stroke="#334155" stroke-width="0.5"/><rect x="568" y="197" width="28" height="18" rx="3" fill="#1a1f36" stroke="#334155" stroke-width="0.5"/><rect x="600" y="197" width="28" height="18" rx="3" fill="#1a1f36" stroke="#334155" stroke-width="0.5"/>
  <rect x="640" y="90" width="105" height="130" rx="8" fill="#1a1f36" stroke="#334155" stroke-width="1"/>
  <text x="692" y="112" text-anchor="middle" fill="#94a3b8" font-family="sans-serif" font-size="9">Waveform</text>
  <polyline points="652,140 660,130 668,145 676,125 684,150 692,120 700,148 708,128 716,142 724,132 732,138" stroke="#6366f1" stroke-width="1.5" fill="none"/>
  <polyline points="652,170 660,162 668,175 676,158 684,178 692,155 700,172 708,165 716,170 724,168 732,170" stroke="#ef4444" stroke-width="1.5" fill="none"/>
  <polyline points="652,198 656,192 660,200 664,190 668,202 672,188 676,204 680,196 684,200 688,196 692,202 696,194 700,200 704,198 708,200" stroke="#22c55e" stroke-width="1" fill="none"/>
  <rect x="60" y="235" width="320" height="50" rx="8" fill="#1a1f36" stroke="#334155" stroke-width="1"/>
  <text x="220" y="256" text-anchor="middle" fill="#94a3b8" font-family="monospace" font-size="10">$ python beat_generator.py --pattern hip_hop</text>
  <text x="220" y="272" text-anchor="middle" fill="#64748b" font-family="monospace" font-size="9">  --bpm 90 --swing 0.2 --bars 8</text>
  <rect x="400" y="235" width="350" height="50" rx="8" fill="#1a1f36" stroke="#334155" stroke-width="1"/>
  <text x="420" y="255" fill="#22c55e" font-family="monospace" font-size="9">Generating: hip_hop at 90 BPM, 8 bars</text>
  <text x="420" y="270" fill="#64748b" font-family="monospace" font-size="9">Saved to hip_hop_90bpm_8bars.wav (16.0s)</text>
  <text x="100" y="315" text-anchor="middle" fill="#6366f1" font-family="sans-serif" font-size="10" font-weight="bold">5 Presets</text>
  <text x="100" y="330" fill="#64748b" font-family="sans-serif" font-size="8">Rock / House / Hip Hop</text>
  <text x="100" y="342" fill="#64748b" font-family="sans-serif" font-size="8">Breakbeat / Trap</text>
  <text x="280" y="315" text-anchor="middle" fill="#ef4444" font-family="sans-serif" font-size="10" font-weight="bold">6 Synth Drums</text>
  <text x="280" y="330" fill="#64748b" font-family="sans-serif" font-size="8">Kick / Snare / Hi-hat</text>
  <text x="280" y="342" fill="#64748b" font-family="sans-serif" font-size="8">Clap / Tom / Open Hat</text>
  <text x="460" y="315" text-anchor="middle" fill="#22c55e" font-family="sans-serif" font-size="10" font-weight="bold">Pure Math</text>
  <text x="460" y="330" fill="#64748b" font-family="sans-serif" font-size="8">Sine sweeps, noise</text>
  <text x="460" y="342" fill="#64748b" font-family="sans-serif" font-size="8">envelopes, filters</text>
  <text x="640" y="315" text-anchor="middle" fill="#eab308" font-family="sans-serif" font-size="10" font-weight="bold">WAV Output</text>
  <text x="640" y="330" fill="#64748b" font-family="sans-serif" font-size="8">Any BPM, bar count</text>
  <text x="640" y="342" fill="#64748b" font-family="sans-serif" font-size="8">swing, batch export</text>
</svg>
