<?xml version="1.0" encoding="UTF-8"?>
<svg xmlns="http://www.w3.org/2000/svg" viewBox="0 0 800 400" fill="none">
  <rect width="800" height="400" fill="#0f172a"/>
  <rect x="40" y="25" width="720" height="350" rx="12" fill="#1e293b" stroke="#334155" stroke-width="1"/>
  <rect x="40" y="25" width="720" height="50" rx="12" fill="#1a1f36"/>
  <rect x="40" y="63" width="720" height="2" fill="#334155"/>
  <rect x="60" y="38" width="24" height="24" rx="4" fill="#6366f1"/>
  <text x="73" y="55" text-anchor="middle" fill="white" font-family="sans-serif" font-size="14" font-weight="bold">J</text>
  <text x="95" y="55" fill="#e2e8f0" font-family="sans-serif" font-size="14" font-weight="bold">Jacob's Shop</text>
  <text x="620" y="55" fill="#94a3b8" font-family="sans-serif" font-size="11">Cart (2)</text>
  <rect x="670" y="40" width="70" height="26" rx="6" fill="#6366f1"/>
  <text x="705" y="57" text-anchor="middle" fill="white" font-family="sans-serif" font-size="11" font-weight="bold">Checkout</text>
  <text x="400" y="105" text-anchor="middle" fill="#e2e8f0" font-family="sans-serif" font-size="20" font-weight="bold">Premium Collection</text>
  <text x="400" y="125" text-anchor="middle" fill="#64748b" font-family="sans-serif" font-size="11">Secure payments powered by Stripe</text>
  <rect x="70" y="145" width="200" height="200" rx="10" fill="#1a1f36" stroke="#334155" stroke-width="1"/>
  <rect x="70" y="145" width="200" height="120" rx="10" fill="#2a1f4e"/>
  <rect x="70" y="255" width="200" height="2" fill="#334155"/>
  <text x="170" y="195" text-anchor="middle" fill="#a78bfa" font-family="sans-serif" font-size="28">&#x1F4E6;</text>
  <text x="170" y="220" text-anchor="middle" fill="#c4b5fd" font-family="sans-serif" font-size="9">PREMIUM</text>
  <text x="90" y="280" fill="#e2e8f0" font-family="sans-serif" font-size="12" font-weight="bold">Analytics Suite</text>
  <text x="90" y="298" fill="#94a3b8" font-family="sans-serif" font-size="10">Full dashboard access</text>
  <text x="90" y="325" fill="#22c55e" font-family="sans-serif" font-size="16" font-weight="bold">$49.99</text>
  <rect x="180" y="315" width="75" height="26" rx="6" fill="#6366f1"/>
  <text x="217" y="332" text-anchor="middle" fill="white" font-family="sans-serif" font-size="10" font-weight="bold">Add to Cart</text>
  <rect x="300" y="145" width="200" height="200" rx="10" fill="#1a1f36" stroke="#334155" stroke-width="1"/>
  <rect x="300" y="145" width="200" height="120" rx="10" fill="#1f2e4a"/>
  <rect x="300" y="255" width="200" height="2" fill="#334155"/>
  <text x="400" y="195" text-anchor="middle" fill="#60a5fa" font-family="sans-serif" font-size="28">&#x1F4CA;</text>
  <text x="400" y="220" text-anchor="middle" fill="#93c5fd" font-family="sans-serif" font-size="9">POPULAR</text>
  <text x="320" y="280" fill="#e2e8f0" font-family="sans-serif" font-size="12" font-weight="bold">Data Toolkit</text>
  <text x="320" y="298" fill="#94a3b8" font-family="sans-serif" font-size="10">Python scripts bundle</text>
  <text x="320" y="325" fill="#22c55e" font-family="sans-serif" font-size="16" font-weight="bold">$29.99</text>
  <rect x="410" y="315" width="75" height="26" rx="6" fill="#6366f1"/>
  <text x="447" y="332" text-anchor="middle" fill="white" font-family="sans-serif" font-size="10" font-weight="bold">Add to Cart</text>
  <rect x="530" y="145" width="200" height="200" rx="10" fill="#1a1f36" stroke="#334155" stroke-width="1"/>
  <rect x="530" y="145" width="200" height="120" rx="10" fill="#1a2f36"/>
  <rect x="530" y="255" width="200" height="2" fill="#334155"/>
  <text x="630" y="195" text-anchor="middle" fill="#34d399" font-family="sans-serif" font-size="28">&#x1F680;</text>
  <text x="630" y="220" text-anchor="middle" fill="#6ee7b7" font-family="sans-serif" font-size="9">NEW</text>
  <text x="550" y="280" fill="#e2e8f0" font-family="sans-serif" font-size="12" font-weight="bold">Automation Pack</text>
  <text x="550" y="298" fill="#94a3b8" font-family="sans-serif" font-size="10">Workflow templates</text>
  <text x="550" y="325" fill="#22c55e" font-family="sans-serif" font-size="16" font-weight="bold">$19.99</text>
  <rect x="640" y="315" width="75" height="26" rx="6" fill="#6366f1"/>
  <text x="677" y="332" text-anchor="middle" fill="white" font-family="sans-serif" font-size="10" font-weight="bold">Add to Cart</text>
  <rect x="350" y="358" width="100" height="8" rx="4" fill="#334155"/>
  <text x="400" y="365" text-anchor="middle" fill="#475569" font-family="sans-serif" font-size="6">Powered by Stripe</text>
</svg>
