<?xml version="1.0" encoding="UTF-8"?>
<svg xmlns="http://www.w3.org/2000/svg" viewBox="0 0 800 400" fill="none">
  <rect width="800" height="400" fill="#0f172a"/>
  <rect x="250" y="20" width="300" height="360" rx="28" fill="#1e293b" stroke="#475569" stroke-width="2"/>
  <rect x="250" y="20" width="300" height="360" rx="28" fill="none" stroke="#6366f1" stroke-width="1" opacity="0.3"/>
  <rect x="350" y="30" width="100" height="6" rx="3" fill="#475569"/>
  <circle cx="400" cy="33" r="4" fill="#334155"/>
  <rect x="270" y="55" width="260" height="40" rx="8" fill="#6366f1"/>
  <text x="400" y="80" text-anchor="middle" fill="white" font-family="sans-serif" font-size="16" font-weight="bold">TaskMaster</text>
  <rect x="270" y="110" width="125" height="55" rx="8" fill="#1a1f36" stroke="#334155" stroke-width="1"/>
  <text x="332" y="132" text-anchor="middle" fill="#94a3b8" font-family="sans-serif" font-size="9">Completed</text>
  <text x="332" y="152" text-anchor="middle" fill="#22c55e" font-family="sans-serif" font-size="18" font-weight="bold">12</text>
  <rect x="405" y="110" width="125" height="55" rx="8" fill="#1a1f36" stroke="#334155" stroke-width="1"/>
  <text x="467" y="132" text-anchor="middle" fill="#94a3b8" font-family="sans-serif" font-size="9">In Progress</text>
  <text x="467" y="152" text-anchor="middle" fill="#eab308" font-family="sans-serif" font-size="18" font-weight="bold">5</text>
  <rect x="270" y="178" width="260" height="42" rx="8" fill="#1a1f36" stroke="#334155" stroke-width="1"/>
  <rect x="280" y="190" width="18" height="18" rx="4" fill="#22c55e"/>
  <text x="289" y="204" text-anchor="middle" fill="white" font-family="sans-serif" font-size="13" font-weight="bold">&#x2713;</text>
  <text x="310" y="200" fill="#e2e8f0" font-family="sans-serif" font-size="12">Design dashboard layout</text>
  <line x1="310" y1="197" x2="485" y2="197" stroke="#64748b" stroke-width="1"/>
  <rect x="270" y="228" width="260" height="42" rx="8" fill="#1a1f36" stroke="#6366f1" stroke-width="1.5"/>
  <rect x="280" y="240" width="18" height="18" rx="4" fill="#6366f1"/>
  <text x="310" y="253" fill="#e2e8f0" font-family="sans-serif" font-size="12">Implement API endpoints</text>
  <rect x="478" y="242" width="42" height="14" rx="3" fill="#eab308" opacity="0.2"/>
  <text x="499" y="252" text-anchor="middle" fill="#eab308" font-family="sans-serif" font-size="8" font-weight="bold">WIP</text>
  <rect x="270" y="278" width="260" height="42" rx="8" fill="#1a1f36" stroke="#334155" stroke-width="1"/>
  <rect x="280" y="290" width="18" height="18" rx="4" fill="none" stroke="#475569" stroke-width="1.5"/>
  <text x="310" y="303" fill="#94a3b8" font-family="sans-serif" font-size="12">Write unit tests</text>
  <rect x="270" y="328" width="260" height="42" rx="8" fill="#1a1f36" stroke="#334155" stroke-width="1"/>
  <rect x="280" y="340" width="18" height="18" rx="4" fill="none" stroke="#475569" stroke-width="1.5"/>
  <text x="310" y="353" fill="#94a3b8" font-family="sans-serif" font-size="12">Deploy to production</text>
  <rect x="60" y="100" width="160" height="200" rx="12" fill="#1e293b" stroke="#334155" stroke-width="1" opacity="0.5"/>
  <text x="140" y="130" text-anchor="middle" fill="#6366f1" font-family="sans-serif" font-size="11" font-weight="bold">React Native</text>
  <text x="140" y="155" text-anchor="middle" fill="#94a3b8" font-family="sans-serif" font-size="9">Cross-Platform</text>
  <text x="140" y="175" text-anchor="middle" fill="#94a3b8" font-family="sans-serif" font-size="9">iOS + Android</text>
  <line x1="80" y1="190" x2="200" y2="190" stroke="#334155" stroke-width="1"/>
  <text x="140" y="210" text-anchor="middle" fill="#64748b" font-family="monospace" font-size="8">expo start</text>
  <text x="140" y="230" text-anchor="middle" fill="#64748b" font-family="monospace" font-size="8">navigation</text>
  <text x="140" y="250" text-anchor="middle" fill="#64748b" font-family="monospace" font-size="8">bottom-tabs</text>
  <text x="140" y="270" text-anchor="middle" fill="#64748b" font-family="monospace" font-size="8">ionicons</text>
  <rect x="580" y="100" width="160" height="200" rx="12" fill="#1e293b" stroke="#334155" stroke-width="1" opacity="0.5"/>
  <text x="660" y="130" text-anchor="middle" fill="#22c55e" font-family="sans-serif" font-size="11" font-weight="bold">Features</text>
  <text x="660" y="160" text-anchor="middle" fill="#94a3b8" font-family="sans-serif" font-size="9">Smart Filtering</text>
  <text x="660" y="180" text-anchor="middle" fill="#94a3b8" font-family="sans-serif" font-size="9">Real-time Search</text>
  <text x="660" y="200" text-anchor="middle" fill="#94a3b8" font-family="sans-serif" font-size="9">Productivity Stats</text>
  <text x="660" y="220" text-anchor="middle" fill="#94a3b8" font-family="sans-serif" font-size="9">Animations</text>
  <text x="660" y="240" text-anchor="middle" fill="#94a3b8" font-family="sans-serif" font-size="9">Tab Navigation</text>
  <text x="660" y="260" text-anchor="middle" fill="#94a3b8" font-family="sans-serif" font-size="9">Profile Screen</text>
</svg>
