<?xml version="1.0" encoding="UTF-8"?>
<svg xmlns="http://www.w3.org/2000/svg" viewBox="0 0 800 400" fill="none">
  <rect width="800" height="400" fill="#0f172a"/>
  <rect x="50" y="30" width="700" height="340" rx="12" fill="#1e293b" stroke="#334155" stroke-width="1"/>
  <rect x="50" y="30" width="700" height="36" rx="12" fill="#1a1f36"/>
  <rect x="50" y="54" width="700" height="2" fill="#334155"/>
  <text x="400" y="53" text-anchor="middle" fill="#94a3b8" font-family="sans-serif" font-size="12">Weather Dashboard</text>
  <rect x="70" y="74" width="300" height="36" rx="8" fill="#1a1f36" stroke="#475569" stroke-width="1"/>
  <text x="85" y="97" fill="#64748b" font-family="sans-serif" font-size="13">New York</text>
  <rect x="380" y="74" width="80" height="36" rx="8" fill="#6366f1"/>
  <text x="420" y="97" text-anchor="middle" fill="white" font-family="sans-serif" font-size="13" font-weight="bold">Search</text>
  <rect x="70" y="125" width="300" height="150" rx="10" fill="#1a1f36" stroke="#334155" stroke-width="1"/>
  <circle cx="140" cy="185" r="35" fill="none" stroke="#eab308" stroke-width="3"/>
  <circle cx="140" cy="185" r="25" fill="#eab308" opacity="0.15"/>
  <line x1="140" y1="140" x2="140" y2="148" stroke="#eab308" stroke-width="2" stroke-linecap="round"/>
  <line x1="140" y1="222" x2="140" y2="230" stroke="#eab308" stroke-width="2" stroke-linecap="round"/>
  <line x1="95" y1="185" x2="103" y2="185" stroke="#eab308" stroke-width="2" stroke-linecap="round"/>
  <line x1="177" y1="185" x2="185" y2="185" stroke="#eab308" stroke-width="2" stroke-linecap="round"/>
  <line x1="108" y1="153" x2="114" y2="159" stroke="#eab308" stroke-width="2" stroke-linecap="round"/>
  <line x1="166" y1="211" x2="172" y2="217" stroke="#eab308" stroke-width="2" stroke-linecap="round"/>
  <line x1="108" y1="217" x2="114" y2="211" stroke="#eab308" stroke-width="2" stroke-linecap="round"/>
  <line x1="166" y1="159" x2="172" y2="153" stroke="#eab308" stroke-width="2" stroke-linecap="round"/>
  <text x="240" y="175" fill="#e2e8f0" font-family="sans-serif" font-size="42" font-weight="bold">22&#xB0;C</text>
  <text x="240" y="200" fill="#94a3b8" font-family="sans-serif" font-size="14">Clear Sky</text>
  <text x="240" y="222" fill="#64748b" font-family="sans-serif" font-size="12">Humidity: 65%</text>
  <text x="240" y="240" fill="#64748b" font-family="sans-serif" font-size="12">Wind: 12 km/h</text>
  <text x="240" y="258" fill="#64748b" font-family="sans-serif" font-size="12">Feels like: 20&#xB0;C</text>
  <rect x="390" y="125" width="340" height="150" rx="10" fill="#1a1f36" stroke="#334155" stroke-width="1"/>
  <text x="410" y="148" fill="#e2e8f0" font-family="sans-serif" font-size="12" font-weight="bold">5-Day Temperature Forecast</text>
  <line x1="420" y1="260" x2="710" y2="260" stroke="#334155" stroke-width="1"/>
  <line x1="420" y1="160" x2="420" y2="260" stroke="#334155" stroke-width="0.5"/>
  <text x="430" y="255" fill="#64748b" font-family="sans-serif" font-size="8">10</text>
  <text x="430" y="225" fill="#64748b" font-family="sans-serif" font-size="8">15</text>
  <text x="430" y="195" fill="#64748b" font-family="sans-serif" font-size="8">20</text>
  <text x="430" y="170" fill="#64748b" font-family="sans-serif" font-size="8">25</text>
  <polyline points="460,190 520,180 580,200 640,175 700,195" stroke="#3b82f6" stroke-width="2.5" fill="none" stroke-linecap="round" stroke-linejoin="round"/>
  <circle cx="460" cy="190" r="4" fill="#3b82f6"/>
  <circle cx="520" cy="180" r="4" fill="#3b82f6"/>
  <circle cx="580" cy="200" r="4" fill="#3b82f6"/>
  <circle cx="640" cy="175" r="4" fill="#3b82f6"/>
  <circle cx="700" cy="195" r="4" fill="#3b82f6"/>
  <text x="460" y="275" text-anchor="middle" fill="#94a3b8" font-family="sans-serif" font-size="9">Mon</text>
  <text x="520" y="275" text-anchor="middle" fill="#94a3b8" font-family="sans-serif" font-size="9">Tue</text>
  <text x="580" y="275" text-anchor="middle" fill="#94a3b8" font-family="sans-serif" font-size="9">Wed</text>
  <text x="640" y="275" text-anchor="middle" fill="#94a3b8" font-family="sans-serif" font-size="9">Thu</text>
  <text x="700" y="275" text-anchor="middle" fill="#94a3b8" font-family="sans-serif" font-size="9">Fri</text>
  <rect x="70" y="290" width="140" height="65" rx="8" fill="#1a1f36" stroke="#334155" stroke-width="1"/>
  <text x="140" y="312" text-anchor="middle" fill="#94a3b8" font-family="sans-serif" font-size="10">Python</text>
  <text x="140" y="330" text-anchor="middle" fill="#6366f1" font-family="monospace" font-size="11" font-weight="bold">Tkinter</text>
  <text x="140" y="346" text-anchor="middle" fill="#64748b" font-family="sans-serif" font-size="9">Desktop GUI</text>
  <rect x="225" y="290" width="140" height="65" rx="8" fill="#1a1f36" stroke="#334155" stroke-width="1"/>
  <text x="295" y="312" text-anchor="middle" fill="#94a3b8" font-family="sans-serif" font-size="10">Visualization</text>
  <text x="295" y="330" text-anchor="middle" fill="#22c55e" font-family="monospace" font-size="11" font-weight="bold">Matplotlib</text>
  <text x="295" y="346" text-anchor="middle" fill="#64748b" font-family="sans-serif" font-size="9">Charts</text>
  <rect x="380" y="290" width="180" height="65" rx="8" fill="#1a1f36" stroke="#334155" stroke-width="1"/>
  <text x="470" y="312" text-anchor="middle" fill="#94a3b8" font-family="sans-serif" font-size="10">Data Source</text>
  <text x="470" y="330" text-anchor="middle" fill="#3b82f6" font-family="monospace" font-size="11" font-weight="bold">OpenWeather API</text>
  <text x="470" y="346" text-anchor="middle" fill="#64748b" font-family="sans-serif" font-size="9">Real-time Weather</text>
  <rect x="575" y="290" width="150" height="65" rx="8" fill="#1a1f36" stroke="#334155" stroke-width="1"/>
  <text x="650" y="312" text-anchor="middle" fill="#94a3b8" font-family="sans-serif" font-size="10">Features</text>
  <text x="650" y="330" text-anchor="middle" fill="#eab308" font-family="sans-serif" font-size="11" font-weight="bold">Demo Mode</text>
  <text x="650" y="346" text-anchor="middle" fill="#64748b" font-family="sans-serif" font-size="9">Graceful Fallback</text>
</svg>
